<svg width="766" height="142" viewBox="0 0 766 142" fill="none" xmlns="http://www.w3.org/2000/svg">
<path d="M3.19371 142C1.42704 142 0.543706 141.117 0.543706 139.35V3.35199C0.543706 1.58533 1.42704 0.701993 3.19371 0.701993H41.9897C43.7564 0.701993 44.6397 1.58533 44.6397 3.35199V139.35C44.6397 141.117 43.7564 142 41.9897 142H3.19371ZM81.4598 142C79.6931 142 78.8098 141.117 78.8098 139.35V41.088C78.8098 39.9573 79.1631 38.8973 79.8698 37.908L104.886 2.29199C105.663 1.23199 106.794 0.701993 108.278 0.701993H146.226C147.78 0.701993 148.911 1.23199 149.618 2.29199L174.846 37.908C175.552 38.8973 175.906 39.9573 175.906 41.088V139.35C175.906 141.117 175.022 142 173.256 142H134.46C132.693 142 131.81 141.117 131.81 139.35V99.6H122.906V139.35C122.906 141.117 122.022 142 120.256 142H81.4598ZM127.358 62.818C130.396 62.818 132.87 61.864 134.778 59.956C136.686 58.048 137.64 55.61 137.64 52.642C137.64 49.6033 136.686 47.13 134.778 45.222C132.87 43.314 130.396 42.36 127.358 42.36C124.319 42.36 121.846 43.314 119.938 45.222C118.03 47.13 117.076 49.6033 117.076 52.642C117.076 55.61 118.03 58.048 119.938 59.956C121.846 61.864 124.319 62.818 127.358 62.818ZM183.22 142C181.453 142 180.57 141.117 180.57 139.35V27.838C180.57 26.2127 181.135 24.7993 182.266 23.598L203.466 2.398C204.667 1.26733 206.08 0.701993 207.706 0.701993H231.026C232.722 0.701993 234.135 1.26733 235.266 2.398L253.18 20.312H258.056L275.97 2.398C277.1 1.26733 278.514 0.701993 280.21 0.701993H303.53C305.155 0.701993 306.568 1.26733 307.77 2.398L328.97 23.598C330.1 24.7993 330.666 26.2127 330.666 27.838V139.35C330.666 141.117 329.782 142 328.016 142H289.22C287.453 142 286.57 141.117 286.57 139.35V51.9H277.666V139.35C277.666 141.117 276.782 142 275.016 142H236.22C234.453 142 233.57 141.117 233.57 139.35V51.9H224.666V139.35C224.666 141.117 223.782 142 222.016 142H183.22ZM367.486 142C365.719 142 364.836 141.117 364.836 139.35V3.35199C364.836 1.58533 365.719 0.701993 367.486 0.701993H441.262C443.029 0.701993 443.912 1.58533 443.912 3.35199V40.452C443.912 42.2187 443.029 43.102 441.262 43.102H408.932V51.9H441.262C443.029 51.9 443.912 52.7833 443.912 54.55V88.152C443.912 89.9187 443.029 90.802 441.262 90.802H408.932V139.35C408.932 141.117 408.049 142 406.282 142H367.486ZM451.234 142C449.468 142 448.584 141.117 448.584 139.35V41.088C448.584 39.9573 448.938 38.8973 449.644 37.908L474.66 2.29199C475.438 1.23199 476.568 0.701993 478.052 0.701993H516C517.555 0.701993 518.686 1.23199 519.392 2.29199L544.62 37.908C545.327 38.8973 545.68 39.9573 545.68 41.088V139.35C545.68 141.117 544.797 142 543.03 142H504.234C502.468 142 501.584 141.117 501.584 139.35V99.6H492.68V139.35C492.68 141.117 491.797 142 490.03 142H451.234ZM497.132 62.818C500.171 62.818 502.644 61.864 504.552 59.956C506.46 58.048 507.414 55.61 507.414 52.642C507.414 49.6033 506.46 47.13 504.552 45.222C502.644 43.314 500.171 42.36 497.132 42.36C494.094 42.36 491.62 43.314 489.712 45.222C487.804 47.13 486.85 49.6033 486.85 52.642C486.85 55.61 487.804 58.048 489.712 59.956C491.62 61.864 494.094 62.818 497.132 62.818ZM552.994 142C551.228 142 550.344 141.117 550.344 139.35V3.35199C550.344 1.58533 551.228 0.701993 552.994 0.701993H620.304C621.93 0.701993 623.343 1.26733 624.544 2.398L645.744 23.598C646.875 24.7993 647.44 26.2127 647.44 27.838V114.758C647.44 116.454 646.875 117.867 645.744 118.998L624.544 140.198C623.343 141.399 621.93 142 620.304 142H552.994ZM594.44 99.6H598.892C601.86 99.6 603.344 97.586 603.344 93.558V49.038C603.344 45.0807 601.86 43.102 598.892 43.102H594.44V99.6ZM654.754 142C652.988 142 652.104 141.117 652.104 139.35V3.35199C652.104 1.58533 652.988 0.701993 654.754 0.701993H693.55C695.317 0.701993 696.2 1.58533 696.2 3.35199V139.35C696.2 141.117 695.317 142 693.55 142H654.754ZM703.514 142C701.748 142 700.864 141.117 700.864 139.35V3.35199C700.864 1.58533 701.748 0.701993 703.514 0.701993H742.31C744.077 0.701993 744.96 1.58533 744.96 3.35199V99.6H762.874C764.641 99.6 765.524 100.483 765.524 102.25V139.35C765.524 141.117 764.641 142 762.874 142H703.514Z" fill="#0E0E0E"/>
</svg>
