<svg width="104" height="217" viewBox="0 0 104 217" fill="none" xmlns="http://www.w3.org/2000/svg">
<path d="M0.24125 -1.4782e-05H52.3213C69.2679 -1.4782e-05 81.9779 4.54665 90.4513 13.64C98.9246 22.7333 103.161 36.0633 103.161 53.63V163.37C103.161 180.937 98.9246 194.267 90.4513 203.36C81.9779 212.453 69.2679 217 52.3213 217H0.24125V-1.4782e-05ZM51.7013 186C57.2813 186 61.5179 184.347 64.4113 181.04C67.5113 177.733 69.0613 172.36 69.0613 164.92V52.08C69.0613 44.64 67.5113 39.2667 64.4113 35.96C61.5179 32.6533 57.2813 31 51.7013 31H34.3413V186H51.7013Z" fill="#0E0E0E"/>
</svg>
